<svg xmlns="http://www.w3.org/2000/svg" viewBox="0 0 800 1000" width="800" height="1000">
  <!-- Temporary hero drawing for BRN Dirtworks: grade section (existing ground dashed, finished grade in yellow, cut hatched, fill stippled). Replace with a job photo. -->
  <defs>
    <pattern id="hatch" width="14" height="14" patternUnits="userSpaceOnUse" patternTransform="rotate(45)">
      <path d="M0 0V14" stroke="#d9c7a8" stroke-width="2" stroke-opacity=".55"/>
    </pattern>
    <pattern id="gravel" width="18" height="18" patternUnits="userSpaceOnUse">
      <rect width="18" height="18" fill="#958b7e"/>
      <circle cx="4" cy="5" r="2.2" fill="#7a7165"/><circle cx="13" cy="11" r="2.6" fill="#b1a898"/><circle cx="7" cy="15" r="1.6" fill="#6c6358"/>
    </pattern>
    <clipPath id="above"><polygon points="-10,-10 810,-10 810,394 -10,362"/></clipPath>
    <clipPath id="below"><polygon points="-10,362 810,394 810,1010 -10,1010"/></clipPath>
  </defs>
  <rect width="800" height="1000" fill="#2b2622"/>
  <g stroke="#38312b" stroke-width="1.5" fill="none"><path d="M0 60H800" /><path d="M0 120H800" /><path d="M0 180H800" /><path d="M0 240H800" /></g>
  <g stroke="#6b6157" stroke-width="2" fill="none"><path d="M0 80h10" /><path d="M0 110h10" /><path d="M0 140h18" /><path d="M0 170h18" /><path d="M0 200h10" /><path d="M0 230h10" /><path d="M0 260h18" /><path d="M0 290h18" /><path d="M0 320h10" /><path d="M0 350h10" /><path d="M0 380h18" /><path d="M0 410h18" /><path d="M0 440h10" /><path d="M0 470h10" /><path d="M0 500h18" /><path d="M0 530h18" /><path d="M0 560h10" /><path d="M0 590h10" /><path d="M0 620h18" /><path d="M0 650h18" /><path d="M0 680h10" /><path d="M0 710h10" /><path d="M0 740h18" /><path d="M0 770h18" /><path d="M0 800h10" /><path d="M0 830h10" /><path d="M0 860h18" /><path d="M0 890h18" /><path d="M0 920h10" /><path d="M0 950h10" /><path d="M0 980h18" /></g>
  <polygon points="-10,358 80,346 160,320 240,300 320,298 400,320 460,354 520,392 600,430 680,440 760,426 810,418 810,448 760,456 680,470 600,460 520,422 460,384 400,350 320,328 240,330 160,350 80,376 -10,388" fill="#43342a"/><polygon points="-10,388 80,376 160,350 240,330 320,328 400,350 460,384 520,422 600,460 680,470 760,456 810,448 810,538 760,546 680,560 600,550 520,512 460,474 400,440 320,418 240,420 160,440 80,466 -10,478" fill="#5a4331"/><polygon points="-10,478 80,466 160,440 240,420 320,418 400,440 460,474 520,512 600,550 680,560 760,546 810,538 810,688 760,696 680,710 600,700 520,662 460,624 400,590 320,568 240,570 160,590 80,616 -10,628" fill="#76573d"/><polygon points="-10,628 80,616 160,590 240,570 320,568 400,590 460,624 520,662 600,700 680,710 760,696 810,688 810,1118 760,1126 680,1140 600,1130 520,1092 460,1054 400,1020 320,998 240,1000 160,1020 80,1046 -10,1058" fill="#5b534a"/>
  <g><ellipse cx="259" cy="650" rx="12.2" ry="6.9" fill="#7b7367"/><ellipse cx="75" cy="843" rx="15.0" ry="9.1" fill="#6f675c"/><ellipse cx="347" cy="623" rx="6.0" ry="3.9" fill="#7b7367"/><ellipse cx="99" cy="710" rx="11.9" ry="9.4" fill="#7b7367"/><ellipse cx="468" cy="666" rx="7.4" ry="5.1" fill="#6f675c"/><ellipse cx="232" cy="649" rx="6.3" ry="3.9" fill="#7b7367"/><ellipse cx="145" cy="833" rx="12.0" ry="7.7" fill="#7b7367"/><ellipse cx="570" cy="866" rx="11.8" ry="8.0" fill="#7b7367"/><ellipse cx="342" cy="718" rx="11.4" ry="7.6" fill="#4d463e"/><ellipse cx="199" cy="670" rx="13.6" ry="7.7" fill="#4d463e"/><ellipse cx="420" cy="944" rx="13.0" ry="8.1" fill="#6f675c"/><ellipse cx="94" cy="781" rx="13.3" ry="7.8" fill="#4d463e"/><ellipse cx="337" cy="975" rx="5.9" ry="4.0" fill="#4d463e"/><ellipse cx="272" cy="730" rx="10.5" ry="7.8" fill="#6f675c"/><ellipse cx="672" cy="976" rx="10.2" ry="7.3" fill="#6f675c"/><ellipse cx="585" cy="799" rx="11.4" ry="8.2" fill="#4d463e"/><ellipse cx="228" cy="746" rx="12.4" ry="6.9" fill="#4d463e"/><ellipse cx="284" cy="834" rx="10.4" ry="6.3" fill="#4d463e"/><ellipse cx="103" cy="718" rx="9.3" ry="7.1" fill="#6f675c"/><ellipse cx="133" cy="768" rx="8.1" ry="4.7" fill="#4d463e"/><ellipse cx="691" cy="801" rx="9.6" ry="6.1" fill="#4d463e"/><ellipse cx="766" cy="757" rx="6.9" ry="4.2" fill="#6f675c"/><ellipse cx="10" cy="932" rx="7.0" ry="4.3" fill="#6f675c"/><ellipse cx="335" cy="739" rx="11.2" ry="8.9" fill="#7b7367"/><ellipse cx="687" cy="977" rx="12.2" ry="9.0" fill="#4d463e"/><ellipse cx="720" cy="931" rx="14.6" ry="11.0" fill="#4d463e"/><ellipse cx="318" cy="746" rx="10.3" ry="6.7" fill="#6f675c"/><ellipse cx="54" cy="713" rx="6.8" ry="4.3" fill="#6f675c"/><ellipse cx="82" cy="836" rx="10.9" ry="8.6" fill="#7b7367"/><ellipse cx="20" cy="947" rx="11.8" ry="6.9" fill="#4d463e"/><ellipse cx="764" cy="881" rx="10.2" ry="5.9" fill="#4d463e"/><ellipse cx="794" cy="841" rx="10.3" ry="5.9" fill="#6f675c"/><ellipse cx="600" cy="920" rx="10.3" ry="7.4" fill="#7b7367"/><ellipse cx="18" cy="973" rx="10.8" ry="6.3" fill="#7b7367"/><ellipse cx="731" cy="925" rx="8.3" ry="5.9" fill="#6f675c"/><ellipse cx="557" cy="775" rx="9.0" ry="5.3" fill="#6f675c"/><ellipse cx="426" cy="909" rx="8.6" ry="5.2" fill="#6f675c"/><ellipse cx="645" cy="942" rx="13.1" ry="8.0" fill="#7b7367"/><ellipse cx="394" cy="887" rx="15.9" ry="11.9" fill="#4d463e"/><ellipse cx="207" cy="870" rx="15.5" ry="10.3" fill="#7b7367"/><ellipse cx="790" cy="977" rx="9.0" ry="5.5" fill="#6f675c"/><ellipse cx="376" cy="734" rx="10.3" ry="8.2" fill="#7b7367"/><ellipse cx="672" cy="854" rx="12.2" ry="9.1" fill="#6f675c"/><ellipse cx="668" cy="760" rx="9.3" ry="6.8" fill="#6f675c"/><ellipse cx="382" cy="674" rx="13.7" ry="8.7" fill="#7b7367"/><ellipse cx="317" cy="749" rx="15.4" ry="11.3" fill="#6f675c"/><ellipse cx="794" cy="718" rx="11.5" ry="7.7" fill="#7b7367"/><ellipse cx="117" cy="927" rx="15.8" ry="11.3" fill="#4d463e"/><ellipse cx="125" cy="824" rx="5.2" ry="3.9" fill="#7b7367"/><ellipse cx="520" cy="844" rx="15.3" ry="10.1" fill="#6f675c"/><ellipse cx="661" cy="783" rx="7.8" ry="4.8" fill="#6f675c"/><ellipse cx="611" cy="809" rx="11.0" ry="8.3" fill="#6f675c"/><ellipse cx="728" cy="817" rx="10.0" ry="7.0" fill="#7b7367"/><ellipse cx="337" cy="957" rx="10.5" ry="7.2" fill="#7b7367"/><ellipse cx="408" cy="942" rx="13.5" ry="9.5" fill="#6f675c"/><ellipse cx="138" cy="794" rx="13.0" ry="8.9" fill="#4d463e"/><ellipse cx="546" cy="851" rx="10.3" ry="7.7" fill="#7b7367"/><ellipse cx="45" cy="707" rx="5.5" ry="3.1" fill="#4d463e"/><ellipse cx="449" cy="906" rx="15.0" ry="9.9" fill="#7b7367"/><ellipse cx="779" cy="881" rx="7.2" ry="4.5" fill="#7b7367"/><ellipse cx="427" cy="800" rx="15.4" ry="11.1" fill="#4d463e"/><ellipse cx="738" cy="961" rx="7.2" ry="4.8" fill="#4d463e"/><ellipse cx="97" cy="789" rx="5.8" ry="3.5" fill="#6f675c"/><ellipse cx="170" cy="723" rx="6.3" ry="4.7" fill="#7b7367"/><ellipse cx="515" cy="793" rx="7.8" ry="4.5" fill="#4d463e"/><ellipse cx="176" cy="972" rx="9.4" ry="6.3" fill="#7b7367"/><ellipse cx="666" cy="771" rx="9.7" ry="6.6" fill="#4d463e"/><ellipse cx="337" cy="734" rx="6.0" ry="3.9" fill="#4d463e"/><ellipse cx="443" cy="791" rx="5.2" ry="3.3" fill="#7b7367"/><ellipse cx="236" cy="974" rx="6.2" ry="4.9" fill="#6f675c"/></g>
  <!-- cut: ground above the finished grade -->
  <polygon points="-10,358 80,346 160,320 240,300 320,298 400,320 460,354 520,392 600,430 680,440 760,426 810,418 810,1010 -10,1010" fill="url(#hatch)" clip-path="url(#above)"/>
  <!-- fill: new material below the finished grade -->
  <polygon points="-10,-10 810,-10 810,418 760,426 680,440 600,430 520,392 460,354 400,320 320,298 240,300 160,320 80,346 -10,358" fill="url(#gravel)" clip-path="url(#below)"/>
  <!-- existing ground (dashed) -->
  <polyline points="-10,358 80,346 160,320 240,300 320,298 400,320 460,354 520,392 600,430 680,440 760,426 810,418" fill="none" stroke="#e6ddd0" stroke-width="3" stroke-dasharray="12 9"/>
  <!-- finished grade -->
  <path d="M-10 361.6L810 394.4" stroke="#e0a526" stroke-width="7"/>
  <!-- benchmark marker -->
  <path d="M132 324h36l-18 26z" fill="none" stroke="#e0a526" stroke-width="4" stroke-linejoin="miter"/>
  <path d="M150 350V364" stroke="#e0a526" stroke-width="3"/>
  <!-- grade stake with flagging tape, where cut turns to fill -->
  <g transform="translate(490 0)">
    <rect x="-6" y="290" width="12" height="124" fill="#caa475"/>
    <path d="M-6 290l6-12 6 12z" fill="#caa475"/>
    <path d="M6 298c18-4 30 4 48-2l-8 12 10 10c-16 4-32-4-50 0z" fill="#ef6a2a"/>
    <path d="M-2 322h4v8h-4z" fill="#1f1c19" opacity=".55"/>
  </g>
</svg>
